<svg xmlns="http://www.w3.org/2000/svg" viewBox="0 0 960 600" role="img" aria-labelledby="title desc">
  <title id="title">Project flow from AI methods to chip demonstrations</title>
  <desc id="desc">A circular project flow links AI modeling, circuit design, tape-out chips, and demonstration results.</desc>
  <defs>
    <linearGradient id="bg" x1="0" y1="0" x2="1" y2="1"><stop offset="0" stop-color="#071314"/><stop offset="0.48" stop-color="#122b32"/><stop offset="1" stop-color="#181c34"/></linearGradient>
    <filter id="glow" x="-40%" y="-40%" width="180%" height="180%"><feGaussianBlur stdDeviation="5" result="b"/><feMerge><feMergeNode in="b"/><feMergeNode in="SourceGraphic"/></feMerge></filter>
    <marker id="arrow" viewBox="0 0 10 10" refX="8" refY="5" markerWidth="7" markerHeight="7" orient="auto-start-reverse"><path d="M0 0L10 5L0 10z" fill="#45e0d0"/></marker>
    <pattern id="grid" width="34" height="34" patternUnits="userSpaceOnUse"><path d="M34 0H0V34" fill="none" stroke="#ffffff" stroke-opacity="0.045"/></pattern>
  </defs>
  <rect width="960" height="600" rx="28" fill="url(#bg)"/>
  <rect width="960" height="600" rx="28" fill="url(#grid)"/>
  <g fill="none" stroke="#45e0d0" stroke-width="7" stroke-linecap="round" filter="url(#glow)" marker-end="url(#arrow)">
    <path d="M480 102 C620 102 746 180 792 300"/>
    <path d="M792 300 C746 420 620 498 480 498"/>
    <path d="M480 498 C340 498 214 420 168 300"/>
    <path d="M168 300 C214 180 340 102 480 102"/>
  </g>
  <g transform="translate(382 202)">
    <rect x="0" y="0" width="196" height="196" rx="32" fill="#0d2428" stroke="#f2c75c" stroke-opacity="0.8" stroke-width="2"/>
    <rect x="48" y="48" width="100" height="100" rx="18" fill="#152f35" stroke="#7ee8df" stroke-opacity="0.7"/>
    <path d="M68 84h60M68 116h60M84 66v64M116 66v64" stroke="#45e0d0" stroke-width="4" stroke-opacity="0.65"/>
    <circle cx="98" cy="98" r="14" fill="#ffd66b" filter="url(#glow)"/>
  </g>
  <g transform="translate(385 52)">
    <rect x="0" y="0" width="190" height="96" rx="22" fill="#102b32" stroke="#78e6df" stroke-opacity="0.55"/>
    <g stroke="#78e6df" stroke-width="3" stroke-opacity="0.6" fill="none"><path d="M42 50L88 28L136 50L160 30"/><path d="M42 50L88 72L136 50L160 70"/></g>
    <g fill="#ffd66b"><circle cx="42" cy="50" r="9"/><circle cx="88" cy="28" r="9"/><circle cx="88" cy="72" r="9"/><circle cx="136" cy="50" r="9"/><circle cx="160" cy="30" r="9"/><circle cx="160" cy="70" r="9"/></g>
  </g>
  <g transform="translate(716 236)">
    <rect x="0" y="0" width="166" height="128" rx="22" fill="#102b32" stroke="#78e6df" stroke-opacity="0.55"/>
    <path d="M30 90h106M30 38v52" stroke="#d7e4e1" stroke-opacity="0.35" stroke-width="3"/>
    <path d="M38 82c20-58 38 20 58-22s38-10 58-34" fill="none" stroke="#ffd66b" stroke-width="6" stroke-linecap="round" filter="url(#glow)"/>
  </g>
  <g transform="translate(386 452)">
    <rect x="0" y="0" width="188" height="98" rx="22" fill="#102b32" stroke="#78e6df" stroke-opacity="0.55"/>
    <circle cx="54" cy="50" r="26" fill="none" stroke="#45e0d0" stroke-width="7" opacity="0.9"/>
    <rect x="102" y="24" width="18" height="52" rx="5" fill="#ffd66b"/><rect x="130" y="40" width="18" height="36" rx="5" fill="#45e0d0"/><rect x="158" y="32" width="18" height="44" rx="5" fill="#d7e4e1" opacity="0.75"/>
  </g>
  <g transform="translate(82 236)">
    <rect x="0" y="0" width="166" height="128" rx="22" fill="#102b32" stroke="#78e6df" stroke-opacity="0.55"/>
    <rect x="42" y="28" width="82" height="72" rx="12" fill="#152f35" stroke="#f2c75c" stroke-opacity="0.7"/>
    <path d="M58 54h50M58 76h50M82 38v54" stroke="#45e0d0" stroke-width="4" stroke-opacity="0.65"/>
  </g>
</svg>