<svg xmlns="http://www.w3.org/2000/svg" viewBox="0 0 960 600" role="img" aria-labelledby="title desc">
  <title id="title">High-speed SerDes and data-center interconnect visual</title>
  <desc id="desc">A high-speed IC connected by glowing differential traces to data-center systems.</desc>
  <defs>
    <linearGradient id="bg" x1="0" y1="0" x2="1" y2="1"><stop offset="0" stop-color="#071314"/><stop offset="0.48" stop-color="#102a2d"/><stop offset="1" stop-color="#202538"/></linearGradient>
    <linearGradient id="chip" x1="0" y1="0" x2="1" y2="1"><stop offset="0" stop-color="#1f3d42"/><stop offset="1" stop-color="#071113"/></linearGradient>
    <linearGradient id="gold" x1="0" y1="0" x2="1" y2="0"><stop offset="0" stop-color="#ffd66b"/><stop offset="1" stop-color="#45e0d0"/></linearGradient>
    <filter id="glow" x="-40%" y="-40%" width="180%" height="180%"><feGaussianBlur stdDeviation="5" result="b"/><feMerge><feMergeNode in="b"/><feMergeNode in="SourceGraphic"/></feMerge></filter>
    <pattern id="grid" width="32" height="32" patternUnits="userSpaceOnUse"><path d="M32 0H0V32" fill="none" stroke="#ffffff" stroke-opacity="0.055"/></pattern>
  </defs>
  <rect width="960" height="600" rx="28" fill="url(#bg)"/>
  <rect width="960" height="600" rx="28" fill="url(#grid)"/>
  <g opacity="0.28">
    <circle cx="190" cy="100" r="100" fill="#45e0d0" opacity="0.18"/>
    <circle cx="730" cy="480" r="130" fill="#f2c75c" opacity="0.11"/>
  </g>
  <g transform="translate(70 138)">
    <rect x="0" y="0" width="310" height="310" rx="28" fill="url(#chip)" stroke="#7ee8df" stroke-opacity="0.45" stroke-width="2"/>
    <rect x="56" y="56" width="198" height="198" rx="18" fill="#10282b" stroke="#d9b65c" stroke-opacity="0.65"/>
    <path d="M86 126h138M86 162h138M86 198h138M126 86v138M162 86v138M198 86v138" stroke="#6ff0e6" stroke-opacity="0.5" stroke-width="3"/>
    <rect x="118" y="118" width="74" height="74" rx="12" fill="#061517" stroke="#ffd66b" stroke-width="2"/>
    <path d="M0 38h-35M0 82h-35M0 126h-35M0 170h-35M0 214h-35M0 258h-35M310 38h35M310 82h35M310 126h35M310 170h35M310 214h35M310 258h35M38 0v-35M82 0v-35M126 0v-35M170 0v-35M214 0v-35M258 0v-35M38 310v35M82 310v35M126 310v35M170 310v35M214 310v35M258 310v35" stroke="#c9d8d6" stroke-opacity="0.55" stroke-width="10" stroke-linecap="round"/>
    <circle cx="155" cy="155" r="10" fill="#45e0d0" filter="url(#glow)"/>
  </g>
  <g filter="url(#glow)" fill="none" stroke-linecap="round">
    <path d="M378 236 C505 236 540 128 678 128" stroke="#45e0d0" stroke-width="7"/>
    <path d="M378 258 C515 258 552 178 688 178" stroke="#ffd66b" stroke-width="5"/>
    <path d="M378 312 C525 312 556 380 700 380" stroke="#45e0d0" stroke-width="7"/>
    <path d="M378 334 C506 334 550 430 688 430" stroke="#ffd66b" stroke-width="5"/>
  </g>
  <g transform="translate(650 85)">
    <g opacity="0.95">
      <rect x="0" y="0" width="210" height="70" rx="10" fill="#122f34" stroke="#75e4dc" stroke-opacity="0.55"/>
      <rect x="18" y="18" width="38" height="34" rx="4" fill="#22494f"/><rect x="72" y="18" width="38" height="34" rx="4" fill="#22494f"/><rect x="126" y="18" width="38" height="34" rx="4" fill="#22494f"/>
      <rect x="0" y="106" width="210" height="70" rx="10" fill="#122f34" stroke="#75e4dc" stroke-opacity="0.55"/>
      <rect x="18" y="124" width="38" height="34" rx="4" fill="#22494f"/><rect x="72" y="124" width="38" height="34" rx="4" fill="#22494f"/><rect x="126" y="124" width="38" height="34" rx="4" fill="#22494f"/>
      <rect x="0" y="212" width="210" height="70" rx="10" fill="#122f34" stroke="#75e4dc" stroke-opacity="0.55"/>
      <rect x="18" y="230" width="38" height="34" rx="4" fill="#22494f"/><rect x="72" y="230" width="38" height="34" rx="4" fill="#22494f"/><rect x="126" y="230" width="38" height="34" rx="4" fill="#22494f"/>
      <rect x="0" y="318" width="210" height="70" rx="10" fill="#122f34" stroke="#75e4dc" stroke-opacity="0.55"/>
      <rect x="18" y="336" width="38" height="34" rx="4" fill="#22494f"/><rect x="72" y="336" width="38" height="34" rx="4" fill="#22494f"/><rect x="126" y="336" width="38" height="34" rx="4" fill="#22494f"/>
    </g>
  </g>
  <g fill="#ffffff" opacity="0.55"><circle cx="462" cy="210" r="3"/><circle cx="548" cy="158" r="3"/><circle cx="612" cy="398" r="3"/><circle cx="520" cy="330" r="2.5"/></g>
</svg>